<?xml version="1.0" encoding="UTF-8"?>
<svg width="32px" height="32px" viewBox="0 0 32 32" version="1.1" xmlns="http://www.w3.org/2000/svg" xmlns:xlink="http://www.w3.org/1999/xlink">
    <!-- Generator: Sketch 50.2 (55047) - http://www.bohemiancoding.com/sketch -->
    <title>Share-Facebook</title>
    <desc>Created with Sketch.</desc>
    <defs>
        <polygon id="path-1" points="0.000133333333 0 32.0001333 0 32.0001333 31.9998667 0.000133333333 31.9998667"></polygon>
    </defs>
    <g id="Share-Facebook" stroke="none" stroke-width="1" fill="none" fill-rule="evenodd">
        <g id="Group-9">
            <mask id="mask-2" fill="white">
                <use xlink:href="#path-1"></use>
            </mask>
            <g id="Clip-8"></g>
            <path d="M20.7356889,9.41275556 L18.4996889,9.41275556 C17.7099111,9.41275556 17.5454667,9.73631111 17.5454667,10.5527556 L17.5454667,12.5260889 L20.7356889,12.5260889 L20.4285778,15.9900889 L17.5454667,15.9900889 L17.5454667,26.3376444 L13.4134667,26.3376444 L13.4134667,16.0336444 L11.2645778,16.0336444 L11.2645778,12.5260889 L13.4134667,12.5260889 L13.4134667,9.76386667 C13.4134667,7.17142222 14.8001333,5.81764444 17.8748,5.81764444 L20.7356889,5.81764444 L20.7356889,9.41275556 Z M16.0001333,-0.000133333333 C7.16324444,-0.000133333333 0.000133333333,7.16297778 0.000133333333,15.9998667 C0.000133333333,24.8367556 7.16324444,31.9998667 16.0001333,31.9998667 C24.8365778,31.9998667 32.0001333,24.8367556 32.0001333,15.9998667 C32.0001333,7.16297778 24.8365778,-0.000133333333 16.0001333,-0.000133333333 Z" id="Fill-7" fill="#FEFEFE" mask="url(#mask-2)"></path>
        </g>
    </g>
</svg>