<?xml version="1.0" encoding="UTF-8"?>
<svg width="32px" height="32px" viewBox="0 0 32 32" version="1.1" xmlns="http://www.w3.org/2000/svg" xmlns:xlink="http://www.w3.org/1999/xlink">
    <!-- Generator: Sketch 50.2 (55047) - http://www.bohemiancoding.com/sketch -->
    <title>Share-Twitter</title>
    <desc>Created with Sketch.</desc>
    <defs>
        <polygon id="path-1" points="0.289578082 0 31.8512219 0 31.8512219 31.1110679 0.289578082 31.1110679"></polygon>
    </defs>
    <g id="Share-Twitter" stroke="none" stroke-width="1" fill="none" fill-rule="evenodd">
        <g id="Group-12">
            <mask id="mask-2" fill="white">
                <use xlink:href="#path-1"></use>
            </mask>
            <g id="Clip-11"></g>
            <path d="M24.0068384,12.8752037 C24.2378521,17.9497716 20.3991671,23.6076728 13.6033315,23.6076728 C11.5364822,23.6076728 9.61253699,23.0100802 7.99281096,21.9864383 C9.93429041,22.2119938 11.8727014,21.6813765 13.4113315,20.4922407 C11.8100164,20.4632901 10.458126,19.4202037 9.99259178,17.9869321 C10.5659616,18.0949568 11.130126,18.0634136 11.6451945,17.9255741 C9.88475616,17.5764383 8.67007123,16.013537 8.70952329,14.342179 C9.20311233,14.6122407 9.76771507,14.7747099 10.3678247,14.792858 C8.73757808,13.7195247 8.27598904,11.5979198 9.23511233,9.97625309 C11.0398247,12.159216 13.7365918,13.5955123 16.7787836,13.7463148 C16.2453041,11.4890309 17.9820712,9.31600617 20.3443726,9.31600617 C21.3973041,9.31600617 22.348537,9.75372222 23.0157151,10.4550185 C23.8494685,10.2934136 24.632811,9.99310494 25.3398795,9.57958642 C25.0667836,10.422179 24.4864,11.1295247 23.730674,11.5754506 C24.4710575,11.4885988 25.1763726,11.2945864 25.8330301,11.0076728 C25.3425096,11.7314383 24.7217973,12.3666235 24.0068384,12.8752037 M16.0704,-4.32098765e-05 C7.35500274,-4.32098765e-05 0.289578082,6.96409259 0.289578082,15.5555123 C0.289578082,24.1469321 7.35500274,31.1110679 16.0704,31.1110679 C24.7857973,31.1110679 31.8512219,24.1469321 31.8512219,15.5555123 C31.8512219,6.96409259 24.7857973,-4.32098765e-05 16.0704,-4.32098765e-05" id="Fill-10" fill="#FEFEFE" mask="url(#mask-2)"></path>
        </g>
    </g>
</svg>