<?xml version="1.0" encoding="UTF-8"?>
<svg width="32px" height="32px" viewBox="0 0 32 32" version="1.1" xmlns="http://www.w3.org/2000/svg" xmlns:xlink="http://www.w3.org/1999/xlink">
    <!-- Generator: Sketch 50.2 (55047) - http://www.bohemiancoding.com/sketch -->
    <title>Share-Pinterest</title>
    <desc>Created with Sketch.</desc>
    <defs>
        <polygon id="path-1" points="0.429632877 0 31.9912767 0 31.9912767 31.1109383 0.429632877 31.1109383"></polygon>
    </defs>
    <g id="Share-Pinterest" stroke="none" stroke-width="1" fill="none" fill-rule="evenodd">
        <g id="Group-3">
            <mask id="mask-2" fill="white">
                <use xlink:href="#path-1"></use>
            </mask>
            <g id="Clip-2"></g>
            <path d="M18.280811,20.6757531 C17.0477151,20.6757531 15.8878247,20.0185309 15.4911123,19.2727284 C15.4911123,19.2727284 14.8274411,21.8666173 14.6876055,22.3669877 C14.1931397,24.136 12.7382356,25.9063086 12.6255781,26.0510617 C12.546674,26.1521728 12.3726466,26.1206296 12.3542356,25.986679 C12.322674,25.7615556 11.9518247,23.5293333 12.3888658,21.7089012 C12.6076055,20.7941481 13.8573589,15.573963 13.8573589,15.573963 C13.8573589,15.573963 13.4930849,14.8549506 13.4930849,13.7924198 C13.4930849,12.1240864 14.474126,10.8783457 15.696263,10.8783457 C16.7347288,10.8783457 17.2362082,11.6470494 17.2362082,12.568716 C17.2362082,13.5979753 16.5716603,15.1375432 16.2275507,16.5634691 C15.9413041,17.7582222 16.8355507,18.7321728 18.0305096,18.7321728 C20.1937973,18.7321728 21.6513315,15.9922346 21.6513315,12.7463086 C21.6513315,10.2790247 19.9662904,8.43180247 16.8995507,8.43180247 C13.4356603,8.43180247 11.2763178,10.9790247 11.2763178,13.823963 C11.2763178,14.8043951 11.5700164,15.4970494 12.0298521,16.0319877 C12.2411397,16.2778519 12.2709479,16.3768025 12.1942356,16.6593951 C12.1385644,16.8668025 12.0136329,17.3654444 11.9610301,17.5629136 C11.8851945,17.8480988 11.650674,17.949642 11.3889753,17.8442099 C9.79423562,17.2025432 9.05034521,15.4801975 9.05034521,13.5435309 C9.05034521,10.3455679 11.7870027,6.51069136 17.212537,6.51069136 C21.5741808,6.51069136 24.4436603,9.62050617 24.4436603,12.9601975 C24.4436603,17.3762469 21.9524822,20.6757531 18.280811,20.6757531 M16.2104548,-0.000172839506 C7.49549589,-0.000172839506 0.429632877,6.96439506 0.429632877,15.5553827 C0.429632877,24.1468025 7.49549589,31.1109383 16.2104548,31.1109383 C24.9258521,31.1109383 31.9912767,24.1468025 31.9912767,15.5553827 C31.9912767,6.96439506 24.9258521,-0.000172839506 16.2104548,-0.000172839506" id="Fill-1" fill="#FEFEFE" mask="url(#mask-2)"></path>
        </g>
    </g>
</svg>