<?xml version="1.0" encoding="UTF-8"?>
<svg width="32px" height="32px" viewBox="0 0 32 32" version="1.1" xmlns="http://www.w3.org/2000/svg" xmlns:xlink="http://www.w3.org/1999/xlink">
    <!-- Generator: Sketch 50.2 (55047) - http://www.bohemiancoding.com/sketch -->
    <title>Share-Linkedin</title>
    <desc>Created with Sketch.</desc>
    <defs>
        <polygon id="path-1" points="0.281073973 0.00012962963 31.8422795 0.00012962963 31.8422795 31.1111111 0.281073973 31.1111111"></polygon>
    </defs>
    <g id="Share-Linkedin" stroke="none" stroke-width="1" fill="none" fill-rule="evenodd">
        <g id="Group-6">
            <mask id="mask-2" fill="white">
                <use xlink:href="#path-1"></use>
            </mask>
            <g id="Clip-5"></g>
            <path d="M24.8360329,23.0759321 L21.3879233,23.0759321 L21.3879233,17.2840802 C21.3879233,15.6952531 20.7755397,14.8085864 19.5012384,14.8085864 C18.1147178,14.8085864 17.3901151,15.7324136 17.3901151,17.2840802 L17.3901151,23.0759321 L14.066937,23.0759321 L14.066937,12.041858 L17.3901151,12.041858 L17.3901151,13.5278457 C17.3901151,13.5278457 18.3895671,11.7052531 20.7632658,11.7052531 C23.1369644,11.7052531 24.8360329,13.1337716 24.8360329,16.0893272 L24.8360329,23.0759321 Z M10.1024438,10.5969198 C8.97104658,10.5969198 8.05356712,9.68519136 8.05356712,8.56087037 C8.05356712,7.43654938 8.97104658,6.52482099 10.1024438,6.52482099 C11.2342795,6.52482099 12.1513205,7.43654938 12.1513205,8.56087037 C12.1513205,9.68519136 11.2342795,10.5969198 10.1024438,10.5969198 Z M8.38671781,23.0759321 L11.8514849,23.0759321 L11.8514849,12.041858 L8.38671781,12.041858 L8.38671781,23.0759321 Z M16.0614575,0.00012962963 C7.34649863,0.00012962963 0.281073973,6.96426543 0.281073973,15.5556852 C0.281073973,24.1471049 7.34649863,31.1112407 16.0614575,31.1112407 C24.7772932,31.1112407 31.8422795,24.1471049 31.8422795,15.5556852 C31.8422795,6.96426543 24.7772932,0.00012962963 16.0614575,0.00012962963 Z" id="Fill-4" fill="#FEFEFE" mask="url(#mask-2)"></path>
        </g>
    </g>
</svg>