<?xml version="1.0" encoding="UTF-8"?>
<svg width="20px" height="22px" viewBox="0 0 20 22" version="1.1" xmlns="http://www.w3.org/2000/svg" xmlns:xlink="http://www.w3.org/1999/xlink">
    <!-- Generator: Sketch 50.2 (55047) - http://www.bohemiancoding.com/sketch -->
    <title>Icon</title>
    <desc>Created with Sketch.</desc>
    <defs></defs>
    <g id="Symbols" stroke="none" stroke-width="1" fill="none" fill-rule="evenodd">
        <g id="desktop/atoms/contact/contact-footer" transform="translate(-162.000000, -375.000000)" fill="#000000">
            <g id="Get-in-touch">
                <g id="Text" transform="translate(162.000000, 90.000000)">
                    <path d="M4.02231829,294.521361 C5.62280084,297.980455 8.20046245,300.803173 11.3451292,302.575719 L13.7890821,299.886549 C14.0896753,299.556726 14.5340304,299.446447 14.9220871,299.593148 C16.1666834,300.04539 17.5118126,300.290228 18.8891123,300.290228 C19.5003519,300.290228 20,300.840607 20,301.512394 L20,305.777834 C20,306.450632 19.5003519,307 18.8891123,307 C8.45581582,307 0,297.699195 0,286.222166 C0,285.550379 0.499648135,285 1.1108877,285 L5.00050266,285 C5.61174223,285 6.11139037,285.550379 6.11139037,286.222166 C6.11139037,287.749874 6.33356791,289.216877 6.74474716,290.585744 C6.86639188,291.013704 6.77792299,291.490228 6.46727657,291.832191 L4.02231829,294.521361 Z" id="Icon"></path>
                </g>
            </g>
        </g>
    </g>
</svg>